The Enforcer 1976 BluRay 1080p ac3 x264 SpaceHD [/size]

Encoded for HD-Space.org by Tequila-Bob a.k.a. bobnjeff
Source - NTSC BluRay Disc

[IMG]http://i1015.photobucket.com/albums/af279/tequila-bob/the%20enforcer/enforcer1.jpg[/IMG]


  http://www.imdb.com/title/tt0074483/

Release Date:22 December 1976 (USA)

Genres:Action | Crime | Thriller 

Rated: R Restricted. Under 17 requires accompanying parent or adult guardian.


Storyline: Hard-edged San Francisco cop Harry Callahan (Clint Eastwood) returns in this third installment of the Dirty Harry series. Harry and his new distaff partner, Inspector Kate Moore (Tyne Daly), must track down a group of tree-hugging terrorists who've kidnapped the city's mayor and are demanding a $2 million ransom. Harry and Kate discover that the mayor is being held on Alcatraz Island ... and it's only a matter of time before the showdown begins


Cast
Cast overview, first billed only: 
  Clint Eastwood  ...  Harry Callahan  
  Tyne Daly  ...  Kate Moore  
  Harry Guardino  ...  Lt. Bressler  
  Bradford Dillman  ...  Capt. McKay  
  John Mitchum  ...  DiGiorgio  
  DeVeren Bookwalter  ...  Bobby Maxwell  
  John Crawford  ...  The Mayor  
  Samantha Doane  ...  Wanda  
  Robert F. Hoy  ...  Buchinski (as Robert Hoy)  
  Jocelyn Jones  ...  Miki  
  M.G. Kelly  ...  Father John  
  Nick Pellegrino  ...  Martin  
  Albert Popwell  ...  Mustapha  
  Rudy Ramos  ...  Mendez  
  Bill Ackridge  ...  Andy 

Format                           : Matroska
File size                        : 8.87 GiB
Duration                         : 1h 36mn
Overall bit rate                 : 13.1 Mbps
Encoded date                     : UTC 2010-10-07 08:55:56
Writing application              : mkvmerge v4.3.0 ('Escape from the Island')

Video
ID                               : 1
Format                           : AVC
Format/Info                      : Advanced Video Codec
Format profile                   : High@L5.0
Format settings, CABAC           : Yes
Format settings, ReFrames        : 8 frames
Bit rate                         : 11.1 Mbps
Width                            : 1 920 pixels
Height                           : 800 pixels
Display aspect ratio             : 2.40:1
Frame rate                       : 23.976 fps
Color space                      : YUV
Chroma subsampling               : 4:2:0
Bit depth                        : 8 bits
Scan type                        : Progressive
Bits/(Pixel*Frame)               : 0.303
Stream size                      : 7.48 GiB (84%)

Audio #1
ID                               : 2
Format                           : AC-3
Format/Info                      : Audio Coding 3
Language                         : English
Codec ID                         : A_AC3
Duration                         : 1h 36mn
Bit rate mode                    : Constant
Bit rate                         : 640 Kbps
Channel(s)                       : 6 channels
Channel positions                : Front: L C R, Side: L R, LFE
Sampling rate                    : 48.0 KHz
Stream size                      : 442 MiB (5%)

Audio #2,3,4,5,6,7
ID                               : 3
Format                           : AC-3
Format/Info                      : Audio Coding 3
Mode extension                   : CM (complete main)
Bit rate                         : 192 Kbps
Channel(s)                       : 1 channel
Channel positions                : Front: C
Sampling rate                    : 48.0 KHz
Stream size                      : 133 MiB (1%)
Language                         : French, German, Italian, Spanish, Spanish, Portuguese




Subtitles                        : German, French, Italian, Spanish, Dutch, Portuguese
                                 : Finnish, Norwegian, Swedish, Japanese

Menu                             : Chapters 29
 
http://photobucket.com/the_enforcer_spacehd_tequila_bob  

[img]http://torrent-stats.info/267d/240bb73d.png[/img]

